<svg xmlns="http://www.w3.org/2000/svg" version="1.1" xmlns:xlink="http://www.w3.org/1999/xlink" xmlns:svgjs="http://svgjs.dev/svgjs" width="1500" height="1500" viewBox="0 0 1500 1500"><rect width="1500" height="1500" fill="#000000"></rect><g transform="matrix(0.6666666666666666,0,0,0.6666666666666666,249.39393939393938,438.5856950067477)"><svg viewBox="0 0 396 247" data-background-color="#ffffff" preserveAspectRatio="xMidYMid meet" height="935" width="1500" xmlns="http://www.w3.org/2000/svg" xmlns:xlink="http://www.w3.org/1999/xlink"><g id="tight-bounds" transform="matrix(1,0,0,1,0.2400000000000091,-0.09999999999999432)"><svg viewBox="0 0 395.52 247.2" height="247.2" width="395.52"><g><svg></svg></g><g><svg viewBox="0 0 395.52 247.2" height="247.2" width="395.52"><g transform="matrix(1,0,0,1,75.54432,81.96294417169793)"><svg viewBox="0 0 244.43135999999998 83.27411165660415" height="83.27411165660415" width="244.43135999999998"><g><svg viewBox="0 0 244.43135999999998 83.27411165660415" height="83.27411165660415" width="244.43135999999998"><g><svg viewBox="0 0 244.43135999999998 83.27411165660415" height="83.27411165660415" width="244.43135999999998"><g><svg viewBox="0 0 244.43135999999998 83.27411165660415" height="83.27411165660415" width="244.43135999999998"><g id="textblocktransform"><svg viewBox="0 0 244.43135999999998 83.27411165660415" height="83.27411165660415" width="244.43135999999998" id="textblock"><g><svg viewBox="0 0 244.43135999999998 61.46323968525487" height="61.46323968525487" width="244.43135999999998"><g transform="matrix(1,0,0,1,0,0)"><svg width="244.43135999999998" viewBox="1.5 -36.25 146.14 36.75" height="61.46323968525487" data-palette-color="#5c8eb0"><path d="M1.5-33L29.45-33 29.45-28.4 18.15-28.4 18.15 0 12.8 0 12.8-28.4 1.5-28.4 1.5-33ZM37.8-29.2L37.8-29.2Q36.05-29.2 35.12-30.08 34.2-30.95 34.2-32.55L34.2-32.55Q34.2-34.15 35.12-35 36.05-35.85 37.8-35.85L37.8-35.85Q39.5-35.85 40.42-35 41.35-34.15 41.35-32.55L41.35-32.55Q41.35-30.95 40.42-30.08 39.5-29.2 37.8-29.2ZM35.1-25L40.45-25 40.45 0 35.1 0 35.1-25ZM54.15 0L48.8 0 48.8-25 53.35-25 53.85-20.5Q54.85-22.95 56.82-24.23 58.8-25.5 61.7-25.5L61.7-25.5Q62.45-25.5 63.2-25.38 63.95-25.25 64.45-25L64.45-25 63.7-20.3Q63.15-20.5 62.47-20.63 61.8-20.75 60.65-20.75L60.65-20.75Q59.1-20.75 57.6-19.93 56.1-19.1 55.12-17.45 54.15-15.8 54.15-13.25L54.15-13.25 54.15 0ZM74.84 0L69.49 0 69.49-36.25 74.84-36.25 74.84-21Q76.09-23.35 78.22-24.43 80.34-25.5 82.94-25.5L82.94-25.5Q85.59-25.5 87.72-24.48 89.84-23.45 91.09-21.4 92.34-19.35 92.34-16.2L92.34-16.2 92.34 0 86.99 0 86.99-14.5Q86.99-18.2 85.47-19.65 83.94-21.1 81.64-21.1L81.64-21.1Q80.04-21.1 78.47-20.33 76.89-19.55 75.87-17.82 74.84-16.1 74.84-13.2L74.84-13.2 74.84 0ZM109.34 0.5L109.34 0.5Q106.89 0.5 104.82-0.4 102.74-1.3 101.49-3.3 100.24-5.3 100.24-8.5L100.24-8.5 100.24-25 105.59-25 105.59-9.85Q105.59-6.45 107.04-5.18 108.49-3.9 111.09-3.9L111.09-3.9Q112.34-3.9 113.52-4.33 114.69-4.75 115.64-5.68 116.59-6.6 117.12-8.05 117.64-9.5 117.64-11.45L117.64-11.45 117.64-25 122.99-25 122.99 0 118.29 0 118.04-4.05Q116.74-1.7 114.54-0.6 112.34 0.5 109.34 0.5ZM133.29-30.85L138.64-32.35 138.64-7.5Q138.64-5.65 139.61-4.8 140.59-3.95 142.24-3.95L142.24-3.95Q143.59-3.95 144.59-4.38 145.59-4.8 146.44-5.55L146.44-5.55 147.64-1.65Q146.49-0.65 144.81-0.08 143.14 0.5 141.09 0.5L141.09 0.5Q138.94 0.5 137.14-0.2 135.34-0.9 134.34-2.48 133.34-4.05 133.29-6.6L133.29-6.6 133.29-30.85ZM128.49-25L147.24-25 147.24-20.8 128.49-20.8 128.49-25Z" opacity="1" transform="matrix(1,0,0,1,0,0)" fill="#ffffff" class="wordmark-text-0" data-fill-palette-color="primary" id="text-0"></path></svg></g></svg></g><g transform="matrix(1,0,0,1,112.07177856000001,75.9732354571911)"><svg viewBox="0 0 132.35958143999997 7.300876199413046" height="7.300876199413046" width="132.35958143999997"><g transform="matrix(1,0,0,1,0,0)"><svg width="132.35958143999997" viewBox="0.4 -36.4 848.36 46.8" height="7.300876199413046" data-palette-color="#69391c"><path d="M0.4-34.45L28.4-34.45 28.4-27.3 25.25-26.9Q24.6-27.4 24-29L24-29 18-29 18-5.8Q20-5 20.75-4.15L20.75-4.15 20.25 0 8.55 0 8.05-4.15Q8.7-5 10.8-5.8L10.8-5.8 10.8-29 4.8-29Q4.2-27.4 3.55-26.9L3.55-26.9 0.4-27.3 0.4-34.45ZM45.1-18.85L45.1-18.85Q41.3-18.85 39.85-17.4L39.85-17.4 39.85-5.95Q43.9-5.2 45.4-3.85L45.4-3.85 44.9 0 30.6 0 30.1-3.85Q30.8-4.8 32.85-5.55L32.85-5.55 32.85-19.45Q31.1-20.05 30.1-21.15L30.1-21.15 30.6-25Q33.35-25.6 35.55-25.6 37.75-25.6 39.2-25.5L39.2-25.5 39.2-22.35Q40.35-23.7 42.15-24.58 43.95-25.45 45.42-25.45 46.9-25.45 47.45-25.2L47.45-25.2 47.3-18.7Q46.3-18.85 45.1-18.85ZM50.5-21.3L50.5-21.3Q50.5-22.05 50.55-22.9L50.55-22.9Q55.2-25.4 60.55-25.4 65.9-25.4 68.22-23.38 70.55-21.35 70.55-16.65L70.55-16.65 70.55-6Q72.3-5.65 73.3-5.15L73.3-5.15 73.3-0.8Q70.75 0.4 66 0.4L66 0.4Q65.5-0.9 65.15-2.75L65.15-2.75Q63 0.4 57.35 0.4L57.35 0.4Q54 0.4 51.62-1.55 49.25-3.5 49.25-6.85 49.25-10.2 51.47-12.13 53.7-14.05 58.1-14.05L58.1-14.05 63.55-14.05 63.55-16.45Q63.55-20.35 59.4-20.35L59.4-20.35Q57.85-20.35 56.85-20.05L56.85-20.05Q56.75-17.95 56.25-16.8L56.25-16.8 51.35-16.8Q50.5-18.55 50.5-21.3ZM59.5-4.7L59.5-4.7Q62.05-4.7 63.55-6.2L63.55-6.2 63.55-10.3 60.05-10.3Q56.45-10.3 56.45-7.55L56.45-7.55Q56.45-6.3 57.22-5.5 58-4.7 59.5-4.7ZM75.09-21.15L75.59-25Q78.34-25.6 80.54-25.6 82.74-25.6 84.19-25.5L84.19-25.5 84.19-23Q85.44-24.05 87.52-24.73 89.59-25.4 91.49-25.4L91.49-25.4Q96.39-25.4 98.37-23.1 100.34-20.8 100.34-15.15L100.34-15.15 100.34-5.55Q102.29-4.8 103.09-3.85L103.09-3.85 102.59 0 91.09 0 90.59-3.85Q91.29-4.8 93.34-5.55L93.34-5.55 93.34-15.45Q93.34-18.15 92.47-19.07 91.59-20 89.34-20 87.09-20 84.84-18.4L84.84-18.4 84.84-5.55Q86.79-4.8 87.59-3.85L87.59-3.85 87.09 0 75.59 0 75.09-3.85Q75.79-4.8 77.84-5.55L77.84-5.55 77.84-19.45Q76.09-20.05 75.09-21.15L75.09-21.15ZM114.84-20.9L114.84-20.9Q111.54-20.9 111.54-18.95L111.54-18.95Q111.54-17.1 114.99-16.2L114.99-16.2 118.94-15.15Q125.04-13.55 125.04-8.1L125.04-8.1Q125.04-4.35 122.42-1.98 119.79 0.4 114.07 0.4 108.34 0.4 105.14-1.2L105.14-1.2Q105.09-1.75 105.09-2.3L105.09-2.3Q105.09-5.05 106.19-7.25L106.19-7.25 110.34-7.25Q110.99-6.05 111.19-4.75L111.19-4.75Q112.19-4.45 114.04-4.45L114.04-4.45Q118.44-4.45 118.44-6.95L118.44-6.95Q118.44-7.75 117.84-8.28 117.24-8.8 115.49-9.3L115.49-9.3 111.54-10.45Q108.49-11.3 106.79-12.98 105.09-14.65 105.09-17.93 105.09-21.2 107.74-23.3 110.39-25.4 115.32-25.4 120.24-25.4 123.64-23.95L123.64-23.95Q123.69-23.45 123.69-22.95L123.69-22.95Q123.69-20.35 122.59-18.15L122.59-18.15 118.49-18.15Q117.84-19.3 117.64-20.55L117.64-20.55Q116.24-20.9 114.84-20.9ZM130.14-24.55L130.14-25.95Q130.14-31.15 132.39-33.77 134.64-36.4 139.54-36.4 144.44-36.4 148.04-33.75L148.04-33.75Q148.09-33.4 148.09-32.73 148.09-32.05 147.74-30.5 147.39-28.95 146.79-28L146.79-28 142.59-28Q141.69-29.7 141.64-31.2L141.64-31.2Q141.04-31.3 140.64-31.3L140.64-31.3Q138.74-31.3 137.94-30.25 137.14-29.2 137.14-26.45L137.14-26.45 137.14-24.55 144.79-24.55 144.79-19.95 137.14-19.95 137.14-5.8Q140.89-5.05 142.24-3.85L142.24-3.85 141.74 0 127.89 0 127.39-3.85Q128.09-4.8 130.14-5.55L130.14-5.55 130.14-19.95 127.94-19.95 127.39-23.4Q128.49-24.4 130.14-24.55L130.14-24.55ZM157.81 0.4Q151.89 0.4 149.04-2.75 146.19-5.9 146.19-12.28 146.19-18.65 149.36-22.03 152.54-25.4 158.49-25.4 164.44-25.4 167.31-22.4 170.19-19.4 170.19-13.03 170.19-6.65 166.96-3.13 163.74 0.4 157.81 0.4ZM153.39-12.7L153.39-12.7Q153.39-4.7 158.19-4.7L158.19-4.7Q160.64-4.7 161.81-6.53 162.99-8.35 162.99-12.5L162.99-12.5Q162.99-20.3 158.09-20.3L158.09-20.3Q155.69-20.3 154.54-18.57 153.39-16.85 153.39-12.7ZM187.73-18.85L187.73-18.85Q183.93-18.85 182.48-17.4L182.48-17.4 182.48-5.95Q186.53-5.2 188.03-3.85L188.03-3.85 187.53 0 173.23 0 172.73-3.85Q173.43-4.8 175.48-5.55L175.48-5.55 175.48-19.45Q173.73-20.05 172.73-21.15L172.73-21.15 173.23-25Q175.98-25.6 178.18-25.6 180.38-25.6 181.83-25.5L181.83-25.5 181.83-22.35Q182.98-23.7 184.78-24.58 186.58-25.45 188.06-25.45 189.53-25.45 190.08-25.2L190.08-25.2 189.93-18.7Q188.93-18.85 187.73-18.85ZM192.13-21.15L192.63-25Q195.38-25.6 197.58-25.6 199.78-25.6 201.23-25.5L201.23-25.5 201.23-23Q202.43-24 204.23-24.7 206.03-25.4 207.48-25.4L207.48-25.4Q213.18-25.4 215.08-22.55L215.08-22.55Q216.33-23.75 218.38-24.58 220.43-25.4 222.18-25.4L222.18-25.4Q227.68-25.4 229.58-22.93 231.48-20.45 231.48-13.65L231.48-13.65 231.48-5.55Q233.43-4.8 234.23-3.85L234.23-3.85 233.73 0 222.23 0 221.73-3.85Q222.43-4.8 224.48-5.55L224.48-5.55 224.48-15.45Q224.48-18.2 223.73-19.1 222.98-20 220.76-20 218.53-20 216.53-18.35L216.53-18.35Q216.78-16.65 216.78-13.65L216.78-13.65 216.78-5.55Q218.73-4.8 219.53-3.85L219.53-3.85 219.03 0 207.53 0 207.03-3.85Q207.73-4.8 209.78-5.55L209.78-5.55 209.78-15.45Q209.78-18.2 209.03-19.1 208.28-20 206.08-20 203.88-20 201.88-18.4L201.88-18.4 201.88-5.55Q203.83-4.8 204.63-3.85L204.63-3.85 204.13 0 192.63 0 192.13-3.85Q192.83-4.8 194.88-5.55L194.88-5.55 194.88-19.45Q193.13-20.05 192.13-21.15L192.13-21.15ZM236.03-21.15L236.53-25Q239.33-25.65 241.73-25.65 244.13-25.65 245.78-25.5L245.78-25.5 245.78-5.55Q247.73-4.8 248.53-3.85L248.53-3.85 248.03 0 236.53 0 236.03-3.85Q236.73-4.8 238.78-5.55L238.78-5.55 238.78-19.45Q237.03-20.05 236.03-21.15L236.03-21.15ZM242.2-28.45Q238.03-28.45 238.03-32.23 238.03-36 242.2-36 246.38-36 246.38-32.23 246.38-28.45 242.2-28.45ZM250.53-21.15L251.03-25Q253.78-25.6 255.98-25.6 258.18-25.6 259.63-25.5L259.63-25.5 259.63-23Q260.88-24.05 262.95-24.73 265.03-25.4 266.93-25.4L266.93-25.4Q271.83-25.4 273.8-23.1 275.78-20.8 275.78-15.15L275.78-15.15 275.78-5.55Q277.73-4.8 278.53-3.85L278.53-3.85 278.03 0 266.53 0 266.03-3.85Q266.73-4.8 268.78-5.55L268.78-5.55 268.78-15.45Q268.78-18.15 267.9-19.07 267.03-20 264.78-20 262.53-20 260.28-18.4L260.28-18.4 260.28-5.55Q262.23-4.8 263.03-3.85L263.03-3.85 262.53 0 251.03 0 250.53-3.85Q251.23-4.8 253.28-5.55L253.28-5.55 253.28-19.45Q251.53-20.05 250.53-21.15L250.53-21.15ZM291.77 5.3L291.77 5.3Q296.22 5.3 296.22-0.05L296.22-0.05 296.22-2.25Q293.77-0.75 290.07-0.75L290.07-0.75Q285.37-0.75 282.85-3.5 280.32-6.25 280.32-12.65L280.32-12.65Q280.32-25.4 292.02-25.4L292.02-25.4Q295.02-25.4 297.62-24.1L297.62-24.1Q298.12-25 299.12-25L299.12-25 303.22-25 303.22-0.4Q303.22 5.1 300.5 7.75 297.77 10.4 292.07 10.4L292.07 10.4Q289.07 10.4 285.87 9.7 282.67 9 281.02 7.95L281.02 7.95Q280.97 7.5 280.97 7.05L280.97 7.05Q280.97 4.3 282.27 1.75L282.27 1.75 286.67 1.75Q287.22 2.8 287.47 4.55L287.47 4.55Q289.37 5.3 291.77 5.3ZM287.22-12.95Q287.22-9.2 288.25-7.7 289.27-6.2 291.75-6.2 294.22-6.2 296.22-7.6L296.22-7.6 296.22-19.45Q294.22-20.3 291.87-20.3L291.87-20.3Q287.22-20.3 287.22-12.95L287.22-12.95ZM336.12 0.25L329.27 0.25 319.77-28.65Q317.62-29.45 316.97-30.35L316.97-30.35 317.47-34.5 329.17-34.5 329.67-30.35Q328.97-29.4 327.12-28.75L327.12-28.75 331.37-13.95Q332.42-10.5 332.67-7.6L332.67-7.6 332.72-6.75 333.42-6.75Q333.47-9.8 334.67-13.85L334.67-13.85 339.12-28.7Q337.22-29.35 336.47-30.35L336.47-30.35 336.97-34.5 348.37-34.5 348.87-30.35Q347.97-29.25 345.52-28.45L345.52-28.45 336.12 0.25ZM349.87-21.15L350.37-25Q353.17-25.65 355.57-25.65 357.97-25.65 359.62-25.5L359.62-25.5 359.62-5.55Q361.57-4.8 362.37-3.85L362.37-3.85 361.87 0 350.37 0 349.87-3.85Q350.57-4.8 352.62-5.55L352.62-5.55 352.62-19.45Q350.87-20.05 349.87-21.15L349.87-21.15ZM356.04-28.45Q351.87-28.45 351.87-32.23 351.87-36 356.04-36 360.22-36 360.22-32.23 360.22-28.45 356.04-28.45ZM374.36-20.9L374.36-20.9Q371.06-20.9 371.06-18.95L371.06-18.95Q371.06-17.1 374.51-16.2L374.51-16.2 378.46-15.15Q384.56-13.55 384.56-8.1L384.56-8.1Q384.56-4.35 381.94-1.98 379.31 0.4 373.59 0.4 367.86 0.4 364.66-1.2L364.66-1.2Q364.61-1.75 364.61-2.3L364.61-2.3Q364.61-5.05 365.71-7.25L365.71-7.25 369.86-7.25Q370.51-6.05 370.71-4.75L370.71-4.75Q371.71-4.45 373.56-4.45L373.56-4.45Q377.96-4.45 377.96-6.95L377.96-6.95Q377.96-7.75 377.36-8.28 376.76-8.8 375.01-9.3L375.01-9.3 371.06-10.45Q368.01-11.3 366.31-12.98 364.61-14.65 364.61-17.93 364.61-21.2 367.26-23.3 369.91-25.4 374.84-25.4 379.76-25.4 383.16-23.95L383.16-23.95Q383.21-23.45 383.21-22.95L383.21-22.95Q383.21-20.35 382.11-18.15L382.11-18.15 378.01-18.15Q377.36-19.3 377.16-20.55L377.16-20.55Q375.76-20.9 374.36-20.9ZM387.01-21.15L387.51-25Q390.31-25.65 392.71-25.65 395.11-25.65 396.76-25.5L396.76-25.5 396.76-5.55Q398.71-4.8 399.51-3.85L399.51-3.85 399.01 0 387.51 0 387.01-3.85Q387.71-4.8 389.76-5.55L389.76-5.55 389.76-19.45Q388.01-20.05 387.01-21.15L387.01-21.15ZM393.19-28.45Q389.01-28.45 389.01-32.23 389.01-36 393.19-36 397.36-36 397.36-32.23 397.36-28.45 393.19-28.45ZM413.08 0.4Q407.16 0.4 404.31-2.75 401.46-5.9 401.46-12.28 401.46-18.65 404.63-22.03 407.81-25.4 413.76-25.4 419.71-25.4 422.58-22.4 425.46-19.4 425.46-13.03 425.46-6.65 422.23-3.13 419.01 0.4 413.08 0.4ZM408.66-12.7L408.66-12.7Q408.66-4.7 413.46-4.7L413.46-4.7Q415.91-4.7 417.08-6.53 418.26-8.35 418.26-12.5L418.26-12.5Q418.26-20.3 413.36-20.3L413.36-20.3Q410.96-20.3 409.81-18.57 408.66-16.85 408.66-12.7ZM428.01-21.15L428.51-25Q431.26-25.6 433.46-25.6 435.66-25.6 437.11-25.5L437.11-25.5 437.11-23Q438.36-24.05 440.43-24.73 442.51-25.4 444.41-25.4L444.41-25.4Q449.31-25.4 451.28-23.1 453.26-20.8 453.26-15.15L453.26-15.15 453.26-5.55Q455.21-4.8 456.01-3.85L456.01-3.85 455.51 0 444.01 0 443.51-3.85Q444.21-4.8 446.26-5.55L446.26-5.55 446.26-15.45Q446.26-18.15 445.38-19.07 444.51-20 442.26-20 440.01-20 437.76-18.4L437.76-18.4 437.76-5.55Q439.71-4.8 440.51-3.85L440.51-3.85 440.01 0 428.51 0 428.01-3.85Q428.71-4.8 430.76-5.55L430.76-5.55 430.76-19.45Q429.01-20.05 428.01-21.15L428.01-21.15ZM467.75-20.9L467.75-20.9Q464.45-20.9 464.45-18.95L464.45-18.95Q464.45-17.1 467.9-16.2L467.9-16.2 471.85-15.15Q477.95-13.55 477.95-8.1L477.95-8.1Q477.95-4.35 475.33-1.98 472.7 0.4 466.98 0.4 461.25 0.4 458.05-1.2L458.05-1.2Q458-1.75 458-2.3L458-2.3Q458-5.05 459.1-7.25L459.1-7.25 463.25-7.25Q463.9-6.05 464.1-4.75L464.1-4.75Q465.1-4.45 466.95-4.45L466.95-4.45Q471.35-4.45 471.35-6.95L471.35-6.95Q471.35-7.75 470.75-8.28 470.15-8.8 468.4-9.3L468.4-9.3 464.45-10.45Q461.4-11.3 459.7-12.98 458-14.65 458-17.93 458-21.2 460.65-23.3 463.3-25.4 468.23-25.4 473.15-25.4 476.55-23.95L476.55-23.95Q476.6-23.45 476.6-22.95L476.6-22.95Q476.6-20.35 475.5-18.15L475.5-18.15 471.4-18.15Q470.75-19.3 470.55-20.55L470.55-20.55Q469.15-20.9 467.75-20.9ZM492.35-34.5L504.05-34.5 504.55-30.35Q503.75-29.4 501.8-28.65L501.8-28.65 501.8-5.8Q503.8-5 504.55-4.15L504.55-4.15 504.05 0 492.35 0 491.85-4.15Q492.5-5 494.6-5.8L494.6-5.8 494.6-28.65Q492.55-29.4 491.85-30.35L491.85-30.35 492.35-34.5ZM507.45-21.15L507.95-25Q510.7-25.6 512.9-25.6 515.1-25.6 516.55-25.5L516.55-25.5 516.55-23Q517.8-24.05 519.87-24.73 521.95-25.4 523.85-25.4L523.85-25.4Q528.75-25.4 530.72-23.1 532.7-20.8 532.7-15.15L532.7-15.15 532.7-5.55Q534.65-4.8 535.45-3.85L535.45-3.85 534.95 0 523.45 0 522.95-3.85Q523.65-4.8 525.7-5.55L525.7-5.55 525.7-15.45Q525.7-18.15 524.82-19.07 523.95-20 521.7-20 519.45-20 517.2-18.4L517.2-18.4 517.2-5.55Q519.15-4.8 519.95-3.85L519.95-3.85 519.45 0 507.95 0 507.45-3.85Q508.15-4.8 510.2-5.55L510.2-5.55 510.2-19.45Q508.45-20.05 507.45-21.15L507.45-21.15ZM542.64-31.3L546.29-31.3 546.29-25 553.44-25 553.44-20.8 546.29-20.8 546.29-8.15Q546.29-6.55 546.74-5.83 547.19-5.1 548.89-5.1 550.59-5.1 552.54-5.85L552.54-5.85 554.04-1.95Q550.19 0 546.17 0 542.14 0 540.72-1.73 539.29-3.45 539.29-6.75L539.29-6.75 539.29-20.8 537.04-20.8 536.49-23.85Q537.29-24.8 539.79-25.75L539.79-25.75Q540.39-29.85 542.64-31.3L542.64-31.3ZM567.37 0.4Q561.44 0.4 558.59-2.75 555.74-5.9 555.74-12.28 555.74-18.65 558.91-22.03 562.09-25.4 568.04-25.4 573.99-25.4 576.87-22.4 579.74-19.4 579.74-13.03 579.74-6.65 576.51-3.13 573.29 0.4 567.37 0.4ZM562.94-12.7L562.94-12.7Q562.94-4.7 567.74-4.7L567.74-4.7Q570.19-4.7 571.37-6.53 572.54-8.35 572.54-12.5L572.54-12.5Q572.54-20.3 567.64-20.3L567.64-20.3Q565.24-20.3 564.09-18.57 562.94-16.85 562.94-12.7ZM592.63-34.45L620.63-34.45 620.63-27.3 617.48-26.9Q616.83-27.4 616.23-29L616.23-29 610.23-29 610.23-5.8Q612.23-5 612.98-4.15L612.98-4.15 612.48 0 600.78 0 600.28-4.15Q600.93-5 603.03-5.8L603.03-5.8 603.03-29 597.03-29Q596.43-27.4 595.78-26.9L595.78-26.9 592.63-27.3 592.63-34.45ZM634.33 0.4L634.33 0.4Q628.33 0.4 625.31-2.8 622.28-6 622.28-12.1L622.28-12.1Q622.28-15.8 623.33-18.48 624.38-21.15 626.18-22.6L626.18-22.6Q629.68-25.4 634.33-25.4 638.98-25.4 641.46-23.03 643.93-20.65 643.93-14.5L643.93-14.5Q643.93-10.9 640.38-10.9L640.38-10.9 629.53-10.9Q629.73-7.75 631.16-6.45 632.58-5.15 635.68-5.15L635.68-5.15Q637.38-5.15 638.93-5.55 640.48-5.95 641.18-6.35L641.18-6.35 641.88-6.75 643.38-2.75Q643.08-2.4 642.51-1.88 641.93-1.35 639.61-0.48 637.28 0.4 634.33 0.4ZM629.58-15.05L637.48-15.35Q637.58-16.05 637.58-17.05 637.58-18.05 636.78-19.18 635.98-20.3 634.01-20.3 632.03-20.3 630.98-19.1 629.93-17.9 629.58-15.05L629.58-15.05ZM658.23-20.3L658.23-20.3Q653.63-20.3 653.63-12.4L653.63-12.4Q653.63-8.4 654.9-6.83 656.18-5.25 658.58-5.25L658.58-5.25Q662.38-5.25 665.28-5.95L665.28-5.95 666.78-2.1Q665.18-1.05 662.48-0.33 659.78 0.4 657.23 0.4L657.23 0.4Q646.43 0.4 646.43-12.1L646.43-12.1Q646.43-19.4 650.18-22.6L650.18-22.6Q653.53-25.4 658.33-25.4 663.13-25.4 666.33-23.6L666.33-23.6Q666.38-23.1 666.38-22.65L666.38-22.65Q666.38-19.8 665.08-17.25L665.08-17.25 660.68-17.25Q659.98-18.5 659.83-20.25L659.83-20.25Q659.23-20.3 658.23-20.3ZM668.38-31.65L668.88-35.5Q671.68-36.15 674.08-36.15 676.48-36.15 678.13-36L678.13-36 678.13-23.5Q679.33-24.3 681.33-24.85 683.33-25.4 684.88-25.4L684.88-25.4Q689.83-25.4 691.73-23 693.63-20.6 693.63-15.7L693.63-15.7 693.63-5.55Q695.58-4.8 696.38-3.85L696.38-3.85 695.88 0 684.38 0 683.88-3.85Q684.58-4.8 686.63-5.55L686.63-5.55 686.63-15.45Q686.63-18.15 685.75-19.07 684.88-20 682.58-20 680.28-20 678.13-18.4L678.13-18.4 678.13-5.55Q680.08-4.8 680.88-3.85L680.88-3.85 680.38 0 668.88 0 668.38-3.85Q669.08-4.8 671.13-5.55L671.13-5.55 671.13-29.95Q669.38-30.55 668.38-31.65L668.38-31.65ZM698.12-21.15L698.62-25Q701.37-25.6 703.57-25.6 705.77-25.6 707.22-25.5L707.22-25.5 707.22-23Q708.47-24.05 710.55-24.73 712.62-25.4 714.52-25.4L714.52-25.4Q719.42-25.4 721.4-23.1 723.37-20.8 723.37-15.15L723.37-15.15 723.37-5.55Q725.32-4.8 726.12-3.85L726.12-3.85 725.62 0 714.12 0 713.62-3.85Q714.32-4.8 716.37-5.55L716.37-5.55 716.37-15.45Q716.37-18.15 715.5-19.07 714.62-20 712.37-20 710.12-20 707.87-18.4L707.87-18.4 707.87-5.55Q709.82-4.8 710.62-3.85L710.62-3.85 710.12 0 698.62 0 698.12-3.85Q698.82-4.8 700.87-5.55L700.87-5.55 700.87-19.45Q699.12-20.05 698.12-21.15L698.12-21.15ZM739.45 0.4Q733.52 0.4 730.67-2.75 727.82-5.9 727.82-12.28 727.82-18.65 731-22.03 734.17-25.4 740.12-25.4 746.07-25.4 748.95-22.4 751.82-19.4 751.82-13.03 751.82-6.65 748.6-3.13 745.37 0.4 739.45 0.4ZM735.02-12.7L735.02-12.7Q735.02-4.7 739.82-4.7L739.82-4.7Q742.27-4.7 743.45-6.53 744.62-8.35 744.62-12.5L744.62-12.5Q744.62-20.3 739.72-20.3L739.72-20.3Q737.32-20.3 736.17-18.57 735.02-16.85 735.02-12.7ZM753.77-31.65L754.27-35.5Q757.07-36.15 759.47-36.15 761.87-36.15 763.52-36L763.52-36 763.52-5.55Q765.47-4.8 766.27-3.85L766.27-3.85 765.77 0 754.27 0 753.77-3.85Q754.47-4.8 756.52-5.55L756.52-5.55 756.52-29.95Q754.77-30.55 753.77-31.65L753.77-31.65ZM779.89 0.4Q773.97 0.4 771.12-2.75 768.27-5.9 768.27-12.28 768.27-18.65 771.44-22.03 774.62-25.4 780.57-25.4 786.52-25.4 789.39-22.4 792.27-19.4 792.27-13.03 792.27-6.65 789.04-3.13 785.82 0.4 779.89 0.4ZM775.47-12.7L775.47-12.7Q775.47-4.7 780.27-4.7L780.27-4.7Q782.72-4.7 783.89-6.53 785.07-8.35 785.07-12.5L785.07-12.5Q785.07-20.3 780.17-20.3L780.17-20.3Q777.77-20.3 776.62-18.57 775.47-16.85 775.47-12.7ZM806.31 5.3L806.31 5.3Q810.76 5.3 810.76-0.05L810.76-0.05 810.76-2.25Q808.31-0.75 804.61-0.75L804.61-0.75Q799.91-0.75 797.39-3.5 794.86-6.25 794.86-12.65L794.86-12.65Q794.86-25.4 806.56-25.4L806.56-25.4Q809.56-25.4 812.16-24.1L812.16-24.1Q812.66-25 813.66-25L813.66-25 817.76-25 817.76-0.4Q817.76 5.1 815.04 7.75 812.31 10.4 806.61 10.4L806.61 10.4Q803.61 10.4 800.41 9.7 797.21 9 795.56 7.95L795.56 7.95Q795.51 7.5 795.51 7.05L795.51 7.05Q795.51 4.3 796.81 1.75L796.81 1.75 801.21 1.75Q801.76 2.8 802.01 4.55L802.01 4.55Q803.91 5.3 806.31 5.3ZM801.76-12.95Q801.76-9.2 802.79-7.7 803.81-6.2 806.29-6.2 808.76-6.2 810.76-7.6L810.76-7.6 810.76-19.45Q808.76-20.3 806.41-20.3L806.41-20.3Q801.76-20.3 801.76-12.95L801.76-12.95ZM827.61 5.8L828.31 5.8Q829.21 5.8 830.24 4.13 831.26 2.45 831.66 0.15L831.66 0.15 823.46-19.25Q821.01-20.05 820.16-21.15L820.16-21.15 820.66-25 832.16-25 832.66-21.15Q832.01-20.35 830.46-19.7L830.46-19.7 833.21-12.15Q834.11-9.8 834.46-7.5L834.46-7.5 834.61-6.8 835.31-6.8Q835.71-9.3 836.71-12.05L836.71-12.05 839.36-19.45Q837.51-20.15 836.76-21.15L836.76-21.15 837.26-25 848.26-25 848.76-21.15Q847.86-20 845.46-19.2L845.46-19.2 837.21 0.3Q834.86 5.85 833.61 7.45L833.61 7.45Q831.41 10.4 827.49 10.4 823.56 10.4 821.51 8.35L821.51 8.35Q821.46 7.85 821.46 7.35L821.46 7.35Q821.46 4.6 822.61 2.15L822.61 2.15 826.76 2.15Q827.51 3.5 827.61 5.8L827.61 5.8Z" opacity="1" transform="matrix(1,0,0,1,0,0)" fill="#ffffff" class="slogan-text-1" data-fill-palette-color="secondary" id="text-1"></path></svg></g></svg></g></svg></g></svg></g></svg></g></svg></g></svg></g><path d="M177.996 75.963L177.996 17.504 390.187 17.504 390.187 229.696 177.996 229.696 177.996 171.237 183.539 171.237 183.539 224.153 384.645 224.153 384.645 23.047 183.539 23.047 183.539 75.963Z" fill="#ffffff" stroke="transparent" data-fill-palette-color="tertiary"></path></svg></g><defs></defs></svg><rect width="395.52" height="247.2" fill="none" stroke="none" visibility="hidden"></rect></g></svg></g></svg>